<svg width="180" height="180" viewBox="0 0 96 96" fill="none" xmlns="http://www.w3.org/2000/svg">
  <defs>
    <linearGradient id="tile" x1="14" y1="10" x2="80" y2="88" gradientUnits="userSpaceOnUse">
      <stop stop-color="#FFF2D1" />
      <stop offset="0.44" stop-color="#E8C68E" />
      <stop offset="1" stop-color="#CA7B49" />
    </linearGradient>
    <linearGradient id="land" x1="18" y1="38" x2="78" y2="82" gradientUnits="userSpaceOnUse">
      <stop stop-color="#2C6A6B" />
      <stop offset="1" stop-color="#7A8E58" />
    </linearGradient>
    <linearGradient id="trail" x1="46" y1="26" x2="56" y2="80" gradientUnits="userSpaceOnUse">
      <stop stop-color="#FFFDF8" />
      <stop offset="1" stop-color="#F7E7C7" />
    </linearGradient>
  </defs>

  <rect x="6" y="6" width="84" height="84" rx="28" fill="url(#tile)" />
  <circle cx="68" cy="28" r="8" fill="#FFF8E8" fill-opacity="0.96" />
  <path d="M16 64C24 51 35 44 48 44C61 44 74 51 82 66V90H16V64Z" fill="url(#land)" />
  <path d="M48 22C57.389 22 65 29.411 65 38.552C65 50.302 53.223 62.009 48 67C42.777 62.009 31 50.302 31 38.552C31 29.411 38.611 22 48 22Z" fill="#FFFCF6" fill-opacity="0.96" />
  <circle cx="48" cy="38" r="7" fill="#C96E43" />
  <path d="M48 67C45.238 70.111 42.483 73.917 40.607 78" stroke="url(#trail)" stroke-width="5" stroke-linecap="round" />
  <path d="M18 70C28.667 64.667 39.667 62.667 51 64C61.667 65.333 71.667 69 81 75" stroke="#FFFFFF" stroke-opacity="0.34" stroke-width="2.2" stroke-linecap="round" />
  <path d="M18 77C29.333 72.333 39.667 70.667 49 72C58.333 73.333 68.667 77.333 80 84" stroke="#FFFFFF" stroke-opacity="0.22" stroke-width="1.8" stroke-linecap="round" />
</svg>
